<svg xmlns="http://www.w3.org/2000/svg" width="375" viewBox="0 0 375 375" height="375" version="1.0"><defs><clipPath id="a"><path d="M 7 91 L 187.304688 91 L 187.304688 271.554688 L 7 271.554688 Z M 7 91"/></clipPath></defs><path d="M 133.007812 122.921875 C 107.0625 96.949219 64.855469 96.949219 38.910156 122.921875 C 12.96875 148.898438 12.96875 191.164062 38.910156 217.140625 C 64.914062 243.113281 107.007812 243.113281 133.007812 217.140625 C 158.949219 191.164062 158.949219 148.898438 133.007812 122.921875 Z M 128.914062 213.042969 C 105.230469 236.757812 66.6875 236.757812 43.003906 213.042969 C 25.625 195.644531 20.429688 169.484375 29.832031 146.753906 C 39.234375 124.023438 61.386719 109.203125 85.960938 109.203125 C 110.53125 109.203125 132.683594 124.023438 142.085938 146.753906 C 151.488281 169.484375 146.292969 195.644531 128.914062 213.042969 Z M 128.914062 213.042969"/><g clip-path="url(#a)"><path d="M 186.210938 245.832031 L 159.601562 219.183594 C 158.46875 218.054688 156.640625 218.054688 155.507812 219.183594 L 153.464844 221.234375 L 148.773438 216.539062 C 173.085938 183.617188 167.925781 137.5 136.945312 110.78125 C 105.964844 84.058594 59.644531 85.78125 30.730469 114.730469 C 1.828125 143.683594 0.109375 190.050781 26.792969 221.066406 C 53.472656 252.082031 99.527344 257.253906 132.40625 232.925781 L 137.097656 237.621094 L 135.050781 239.667969 C 133.921875 240.800781 133.921875 242.632812 135.050781 243.765625 L 161.664062 270.414062 C 162.796875 271.542969 164.628906 271.542969 165.761719 270.414062 L 186.210938 249.933594 C 186.757812 249.386719 187.0625 248.652344 187.0625 247.882812 C 187.0625 247.113281 186.757812 246.375 186.210938 245.832031 Z M 85.960938 242.445312 C 56.707031 242.445312 30.335938 224.800781 19.144531 197.742188 C 7.949219 170.683594 14.136719 139.539062 34.820312 118.828125 C 48.363281 105.152344 66.789062 97.4375 86.023438 97.394531 C 105.261719 97.351562 123.722656 104.984375 137.324219 118.601562 C 150.925781 132.222656 158.546875 150.707031 158.503906 169.964844 C 158.460938 189.226562 150.757812 207.675781 137.097656 221.234375 C 123.566406 234.859375 105.152344 242.496094 85.960938 242.445312 Z M 141.183594 225.335938 L 141.191406 225.328125 L 145.28125 221.234375 L 149.371094 225.328125 L 141.1875 233.523438 L 137.097656 229.429688 Z M 163.710938 264.265625 L 141.1875 241.714844 L 157.554688 225.328125 L 180.074219 247.882812 Z M 163.710938 264.265625"/></g><path d="M 48.351562 158.445312 L 71.496094 158.445312 C 73.09375 158.445312 74.386719 157.148438 74.386719 155.550781 L 74.386719 132.375 C 74.386719 130.777344 73.09375 129.480469 71.496094 129.480469 L 48.351562 129.480469 C 46.753906 129.480469 45.457031 130.777344 45.457031 132.375 L 45.457031 155.550781 C 45.457031 157.148438 46.753906 158.445312 48.351562 158.445312 Z M 51.246094 135.273438 L 68.601562 135.273438 L 68.601562 152.652344 L 51.246094 152.652344 Z M 51.246094 135.273438"/><path d="M 123.566406 129.480469 L 100.421875 129.480469 C 98.828125 129.480469 97.53125 130.777344 97.53125 132.375 L 97.53125 155.550781 C 97.53125 157.148438 98.828125 158.445312 100.421875 158.445312 L 123.566406 158.445312 C 125.164062 158.445312 126.460938 157.148438 126.460938 155.550781 L 126.460938 132.375 C 126.460938 130.777344 125.164062 129.480469 123.566406 129.480469 Z M 120.671875 152.652344 L 103.316406 152.652344 L 103.316406 135.273438 L 120.671875 135.273438 Z M 120.671875 152.652344"/><path d="M 71.496094 181.617188 L 48.351562 181.617188 C 46.753906 181.617188 45.457031 182.914062 45.457031 184.515625 L 45.457031 207.6875 C 45.457031 209.285156 46.753906 210.582031 48.351562 210.582031 L 71.496094 210.582031 C 73.09375 210.582031 74.386719 209.285156 74.386719 207.6875 L 74.386719 184.515625 C 74.386719 182.914062 73.09375 181.617188 71.496094 181.617188 Z M 68.601562 204.789062 L 51.246094 204.789062 L 51.246094 187.410156 L 68.601562 187.410156 Z M 68.601562 204.789062"/><path d="M 123.566406 204.789062 L 88.851562 204.789062 L 88.851562 141.066406 L 91.746094 141.066406 C 93.34375 141.066406 94.636719 139.769531 94.636719 138.171875 L 94.636719 132.375 C 94.636719 130.777344 93.34375 129.480469 91.746094 129.480469 C 90.148438 129.480469 88.851562 130.777344 88.851562 132.375 L 88.851562 135.273438 L 83.066406 135.273438 L 83.066406 132.375 C 83.066406 130.777344 81.769531 129.480469 80.171875 129.480469 C 78.578125 129.480469 77.28125 130.777344 77.28125 132.375 L 77.28125 138.171875 C 77.28125 139.769531 78.578125 141.066406 80.171875 141.066406 L 83.066406 141.066406 L 83.066406 167.136719 L 62.816406 167.136719 C 61.21875 167.136719 59.921875 168.433594 59.921875 170.03125 C 59.921875 171.628906 61.21875 172.929688 62.816406 172.929688 L 83.066406 172.929688 L 83.066406 207.6875 C 83.066406 209.285156 84.363281 210.582031 85.960938 210.582031 L 123.566406 210.582031 C 125.164062 210.582031 126.460938 209.285156 126.460938 207.6875 C 126.460938 206.085938 125.164062 204.789062 123.566406 204.789062 Z M 123.566406 204.789062"/><path d="M 48.351562 172.929688 L 54.136719 172.929688 C 55.734375 172.929688 57.03125 171.628906 57.03125 170.03125 C 57.03125 168.433594 55.734375 167.136719 54.136719 167.136719 L 48.351562 167.136719 C 46.753906 167.136719 45.457031 168.433594 45.457031 170.03125 C 45.457031 171.628906 46.753906 172.929688 48.351562 172.929688 Z M 48.351562 172.929688"/><path d="M 123.566406 167.136719 L 106.210938 167.136719 C 104.613281 167.136719 103.316406 168.433594 103.316406 170.03125 C 103.316406 171.628906 104.613281 172.929688 106.210938 172.929688 L 120.671875 172.929688 L 120.671875 184.515625 C 120.671875 186.113281 121.96875 187.410156 123.566406 187.410156 C 125.164062 187.410156 126.460938 186.113281 126.460938 184.515625 L 126.460938 170.03125 C 126.460938 168.433594 125.164062 167.136719 123.566406 167.136719 Z M 123.566406 167.136719"/><path d="M 123.566406 193.203125 L 100.421875 193.203125 L 100.421875 181.617188 C 100.421875 180.019531 99.128906 178.722656 97.53125 178.722656 C 95.933594 178.722656 94.636719 180.019531 94.636719 181.617188 L 94.636719 196.101562 C 94.636719 197.699219 95.933594 198.996094 97.53125 198.996094 L 123.566406 198.996094 C 125.164062 198.996094 126.460938 197.699219 126.460938 196.101562 C 126.460938 194.5 125.164062 193.203125 123.566406 193.203125 Z M 123.566406 193.203125"/><g><g><g><path d="M 42 0 L 39.8125 -6.28125 L 38.796875 -6.28125 C 37.335938 -3.96875 35.304688 -2.191406 32.703125 -0.953125 C 30.097656 0.273438 27.046875 0.890625 23.546875 0.890625 C 17.984375 0.890625 13.65625 -0.71875 10.5625 -3.9375 C 7.476562 -7.164062 5.9375 -11.722656 5.9375 -17.609375 L 5.9375 -50.515625 L 23.359375 -50.515625 L 23.359375 -22.921875 C 23.359375 -19.617188 23.828125 -17.117188 24.765625 -15.421875 C 25.703125 -13.734375 27.238281 -12.890625 29.375 -12.890625 C 32.382812 -12.890625 34.523438 -14.066406 35.796875 -16.421875 C 37.078125 -18.785156 37.71875 -22.78125 37.71875 -28.40625 L 37.71875 -50.515625 L 55.15625 -50.515625 L 55.15625 0 Z M 42 0" transform="translate(163.447 218.062)"/></g></g></g><g><g><g><path d="M 30.40625 0.890625 C 22 0.890625 15.46875 -1.34375 10.8125 -5.8125 C 6.15625 -10.289062 3.828125 -16.660156 3.828125 -24.921875 C 3.828125 -33.453125 5.984375 -40 10.296875 -44.5625 C 14.609375 -49.125 20.765625 -51.40625 28.765625 -51.40625 C 36.367188 -51.40625 42.242188 -49.421875 46.390625 -45.453125 C 50.535156 -41.484375 52.609375 -35.769531 52.609375 -28.3125 L 52.609375 -20.546875 L 21.453125 -20.546875 C 21.566406 -17.722656 22.597656 -15.507812 24.546875 -13.90625 C 26.492188 -12.300781 29.144531 -11.5 32.5 -11.5 C 35.5625 -11.5 38.378906 -11.785156 40.953125 -12.359375 C 43.523438 -12.941406 46.3125 -13.9375 49.3125 -15.34375 L 49.3125 -2.8125 C 46.570312 -1.414062 43.742188 -0.453125 40.828125 0.078125 C 37.921875 0.617188 34.445312 0.890625 30.40625 0.890625 Z M 29.375 -39.546875 C 27.332031 -39.546875 25.617188 -38.898438 24.234375 -37.609375 C 22.847656 -36.316406 22.035156 -34.285156 21.796875 -31.515625 L 36.78125 -31.515625 C 36.71875 -33.953125 36.023438 -35.898438 34.703125 -37.359375 C 33.378906 -38.816406 31.601562 -39.546875 29.375 -39.546875 Z M 29.375 -39.546875" transform="translate(224.618 218.062)"/></g></g></g><g><g><g><path d="M 45.03125 -15.515625 C 45.03125 -10.109375 43.1875 -6.019531 39.5 -3.25 C 35.8125 -0.488281 30.519531 0.890625 23.625 0.890625 C 19.882812 0.890625 16.628906 0.6875 13.859375 0.28125 C 11.097656 -0.113281 8.273438 -0.847656 5.390625 -1.921875 L 5.390625 -15.875 C 8.097656 -14.6875 11.0625 -13.703125 14.28125 -12.921875 C 17.507812 -12.148438 20.390625 -11.765625 22.921875 -11.765625 C 26.691406 -11.765625 28.578125 -12.628906 28.578125 -14.359375 C 28.578125 -15.242188 28.050781 -16.035156 27 -16.734375 C 25.945312 -17.441406 22.878906 -18.804688 17.796875 -20.828125 C 13.148438 -22.722656 9.90625 -24.878906 8.0625 -27.296875 C 6.226562 -29.722656 5.3125 -32.796875 5.3125 -36.515625 C 5.3125 -41.210938 7.125 -44.867188 10.75 -47.484375 C 14.375 -50.097656 19.5 -51.40625 26.125 -51.40625 C 29.457031 -51.40625 32.585938 -51.039062 35.515625 -50.3125 C 38.441406 -49.582031 41.476562 -48.519531 44.625 -47.125 L 39.90625 -35.890625 C 37.582031 -36.929688 35.128906 -37.816406 32.546875 -38.546875 C 29.960938 -39.273438 27.851562 -39.640625 26.21875 -39.640625 C 23.363281 -39.640625 21.9375 -38.941406 21.9375 -37.546875 C 21.9375 -36.679688 22.429688 -35.941406 23.421875 -35.328125 C 24.421875 -34.722656 27.300781 -33.484375 32.0625 -31.609375 C 35.59375 -30.148438 38.226562 -28.722656 39.96875 -27.328125 C 41.707031 -25.929688 42.984375 -24.289062 43.796875 -22.40625 C 44.617188 -20.519531 45.03125 -18.222656 45.03125 -15.515625 Z M 45.03125 -15.515625" transform="translate(281.063 218.062)"/></g></g></g><g><g><g><path d="M 30.765625 -12.890625 C 33.109375 -12.890625 35.914062 -13.46875 39.1875 -14.625 L 39.1875 -1.921875 C 36.84375 -0.910156 34.609375 -0.191406 32.484375 0.234375 C 30.359375 0.671875 27.867188 0.890625 25.015625 0.890625 C 19.160156 0.890625 14.9375 -0.539062 12.34375 -3.40625 C 9.757812 -6.28125 8.46875 -10.6875 8.46875 -16.625 L 8.46875 -37.453125 L 2.359375 -37.453125 L 2.359375 -44.546875 L 10.125 -50.03125 L 14.625 -60.640625 L 26.03125 -60.640625 L 26.03125 -50.515625 L 38.4375 -50.515625 L 38.4375 -37.453125 L 26.03125 -37.453125 L 26.03125 -17.796875 C 26.03125 -14.523438 27.609375 -12.890625 30.765625 -12.890625 Z M 30.765625 -12.890625" transform="translate(329.75 218.062)"/></g></g></g></svg>